<svg width="26" height="27" viewBox="0 0 26 27" fill="none" xmlns="http://www.w3.org/2000/svg">
<path d="M13 16.1C13.2571 16.1 13.5085 16.0238 13.7222 15.8809C13.936 15.7381 14.1026 15.535 14.201 15.2975C14.2994 15.0599 14.3252 14.7986 14.275 14.5464C14.2249 14.2942 14.101 14.0626 13.9192 13.8808C13.7374 13.699 13.5058 13.5751 13.2536 13.525C13.0014 13.4748 12.7401 13.5006 12.5025 13.599C12.265 13.6973 12.0619 13.864 11.9191 14.0778C11.7762 14.2915 11.7 14.5429 11.7 14.8C11.7 15.1448 11.837 15.4754 12.0808 15.7192C12.3246 15.963 12.6552 16.1 13 16.1ZM19.5 16.1C19.7571 16.1 20.0085 16.0238 20.2222 15.8809C20.436 15.7381 20.6026 15.535 20.701 15.2975C20.7994 15.0599 20.8252 14.7986 20.775 14.5464C20.7249 14.2942 20.601 14.0626 20.4192 13.8808C20.2374 13.699 20.0058 13.5751 19.7536 13.525C19.5014 13.4748 19.2401 13.5006 19.0025 13.599C18.765 13.6973 18.5619 13.864 18.4191 14.0778C18.2762 14.2915 18.2 14.5429 18.2 14.8C18.2 15.1448 18.337 15.4754 18.5808 15.7192C18.8246 15.963 19.1552 16.1 19.5 16.1ZM13 21.3C13.2571 21.3 13.5085 21.2238 13.7222 21.0809C13.936 20.9381 14.1026 20.735 14.201 20.4975C14.2994 20.2599 14.3252 19.9986 14.275 19.7464C14.2249 19.4942 14.101 19.2626 13.9192 19.0808C13.7374 18.899 13.5058 18.7751 13.2536 18.725C13.0014 18.6748 12.7401 18.7006 12.5025 18.799C12.265 18.8974 12.0619 19.064 11.9191 19.2778C11.7762 19.4915 11.7 19.7429 11.7 20C11.7 20.3448 11.837 20.6754 12.0808 20.9192C12.3246 21.163 12.6552 21.3 13 21.3ZM19.5 21.3C19.7571 21.3 20.0085 21.2238 20.2222 21.0809C20.436 20.9381 20.6026 20.735 20.701 20.4975C20.7994 20.2599 20.8252 19.9986 20.775 19.7464C20.7249 19.4942 20.601 19.2626 20.4192 19.0808C20.2374 18.899 20.0058 18.7751 19.7536 18.725C19.5014 18.6748 19.2401 18.7006 19.0025 18.799C18.765 18.8974 18.5619 19.064 18.4191 19.2778C18.2762 19.4915 18.2 19.7429 18.2 20C18.2 20.3448 18.337 20.6754 18.5808 20.9192C18.8246 21.163 19.1552 21.3 19.5 21.3ZM6.5 16.1C6.75712 16.1 7.00846 16.0238 7.22224 15.8809C7.43602 15.7381 7.60265 15.535 7.70104 15.2975C7.79944 15.0599 7.82518 14.7986 7.77502 14.5464C7.72486 14.2942 7.60105 14.0626 7.41924 13.8808C7.23743 13.699 7.00579 13.5751 6.75362 13.525C6.50144 13.4748 6.24006 13.5006 6.00251 13.599C5.76497 13.6973 5.56194 13.864 5.41909 14.0778C5.27624 14.2915 5.2 14.5429 5.2 14.8C5.2 15.1448 5.33696 15.4754 5.58076 15.7192C5.82456 15.963 6.15522 16.1 6.5 16.1ZM22.1 3.1H20.8V1.8C20.8 1.45522 20.663 1.12456 20.4192 0.880761C20.1754 0.636964 19.8448 0.5 19.5 0.5C19.1552 0.5 18.8246 0.636964 18.5808 0.880761C18.337 1.12456 18.2 1.45522 18.2 1.8V3.1H7.8V1.8C7.8 1.45522 7.66304 1.12456 7.41924 0.880761C7.17544 0.636964 6.84478 0.5 6.5 0.5C6.15522 0.5 5.82456 0.636964 5.58076 0.880761C5.33696 1.12456 5.2 1.45522 5.2 1.8V3.1H3.9C2.86566 3.1 1.87368 3.51089 1.14228 4.24228C0.410892 4.97368 0 5.96566 0 7V22.6C0 23.6343 0.410892 24.6263 1.14228 25.3577C1.87368 26.0891 2.86566 26.5 3.9 26.5H22.1C23.1343 26.5 24.1263 26.0891 24.8577 25.3577C25.5891 24.6263 26 23.6343 26 22.6V7C26 5.96566 25.5891 4.97368 24.8577 4.24228C24.1263 3.51089 23.1343 3.1 22.1 3.1ZM23.4 22.6C23.4 22.9448 23.263 23.2754 23.0192 23.5192C22.7754 23.763 22.4448 23.9 22.1 23.9H3.9C3.55522 23.9 3.22456 23.763 2.98076 23.5192C2.73696 23.2754 2.6 22.9448 2.6 22.6V10.9H23.4V22.6ZM23.4 8.3H2.6V7C2.6 6.65522 2.73696 6.32456 2.98076 6.08076C3.22456 5.83696 3.55522 5.7 3.9 5.7H22.1C22.4448 5.7 22.7754 5.83696 23.0192 6.08076C23.263 6.32456 23.4 6.65522 23.4 7V8.3ZM6.5 21.3C6.75712 21.3 7.00846 21.2238 7.22224 21.0809C7.43602 20.9381 7.60265 20.735 7.70104 20.4975C7.79944 20.2599 7.82518 19.9986 7.77502 19.7464C7.72486 19.4942 7.60105 19.2626 7.41924 19.0808C7.23743 18.899 7.00579 18.7751 6.75362 18.725C6.50144 18.6748 6.24006 18.7006 6.00251 18.799C5.76497 18.8974 5.56194 19.064 5.41909 19.2778C5.27624 19.4915 5.2 19.7429 5.2 20C5.2 20.3448 5.33696 20.6754 5.58076 20.9192C5.82456 21.163 6.15522 21.3 6.5 21.3Z" fill="#249D8C"/>
</svg>
